<svg xmlns="http://www.w3.org/2000/svg" width="17.013" height="15.256" viewBox="0 0 17.013 15.256"><g transform="translate(0.6 0.6)"><path d="M3,8.392A1.757,1.757,0,0,1,4.757,6.635h.817a1.757,1.757,0,0,0,1.462-.782l.714-1.071A1.757,1.757,0,0,1,9.211,4H12.6a1.757,1.757,0,0,1,1.462.782l.714,1.071a1.757,1.757,0,0,0,1.462.782h.817a1.757,1.757,0,0,1,1.757,1.757V16.3a1.757,1.757,0,0,1-1.757,1.757H4.757A1.757,1.757,0,0,1,3,16.3Z" transform="translate(-3 -4)" fill="none" stroke="#707070" stroke-linecap="round" stroke-linejoin="round" stroke-width="1.2"/><path d="M14.271,12.635A2.635,2.635,0,1,1,11.635,10,2.635,2.635,0,0,1,14.271,12.635Z" transform="translate(-3.729 -4.729)" fill="none" stroke="#707070" stroke-linecap="round" stroke-linejoin="round" stroke-width="1.2"/></g></svg>