<svg xmlns="http://www.w3.org/2000/svg" width="21.366" height="19.214" viewBox="0 0 21.366 19.214">
  <g id="md-camera" transform="translate(-2 -3)">
    <path id="Path_440" data-name="Path 440" d="M3,9.38A2.152,2.152,0,0,1,5.152,7.228h1a2.152,2.152,0,0,0,1.79-.958l.874-1.311A2.152,2.152,0,0,1,10.607,4h4.152a2.152,2.152,0,0,1,1.79.958l.874,1.311a2.152,2.152,0,0,0,1.79.958h1A2.152,2.152,0,0,1,22.366,9.38v9.683a2.152,2.152,0,0,1-2.152,2.152H5.152A2.152,2.152,0,0,1,3,19.063Z" transform="translate(0 0)" fill="none" stroke="#707070" stroke-linecap="round" stroke-linejoin="round" stroke-width="2"/>
    <path id="Path_441" data-name="Path 441" d="M15.455,13.228A3.228,3.228,0,1,1,12.228,10,3.228,3.228,0,0,1,15.455,13.228Z" transform="translate(0.455 0.455)" fill="none" stroke="#707070" stroke-linecap="round" stroke-linejoin="round" stroke-width="2"/>
  </g>
</svg>
