<svg xmlns="http://www.w3.org/2000/svg" width="22.957" height="22.128" viewBox="0 0 22.957 22.128">
  <path id="md-home" d="M0,10.064,2.236,7.828m0,0L10.064,0l7.828,7.828m-15.655,0V19.01a1.118,1.118,0,0,0,1.118,1.118H6.709m11.182-12.3,2.236,2.236M17.892,7.828V19.01a1.118,1.118,0,0,1-1.118,1.118H13.419m-6.709,0A1.118,1.118,0,0,0,7.828,19.01V14.537a1.118,1.118,0,0,1,1.118-1.118h2.236A1.118,1.118,0,0,1,12.3,14.537V19.01a1.118,1.118,0,0,0,1.118,1.118m-6.709,0h6.709" transform="translate(1.414 1)" fill="none" stroke="#707070" stroke-linecap="round" stroke-linejoin="round" stroke-width="2"/>
</svg>
