<svg xmlns="http://www.w3.org/2000/svg" width="28.374" height="30.098" viewBox="0 0 28.374 30.098">
  <path id="Path_477" data-name="Path 477" d="M137.373,968.02c.007-.122.02-.245.02-.367.006-1.81.008-3.62.017-5.431a2.3,2.3,0,0,1,1.626-2.314,3.039,3.039,0,0,1,3.154.611.845.845,0,0,1,.086.135c1.684-1.273,2.842-1.27,4.448-.023,1.358-1.058,1.978-1.141,3.884-.5,0-.138,0-.262,0-.386,0-1.767,0-3.535.008-5.3a2.6,2.6,0,0,1,2.411-2.521,2.66,2.66,0,0,1,2.97,2.005,7.48,7.48,0,0,1,.065,1.409c.014,3.149.054,6.3.023,9.448A39.307,39.307,0,0,1,155,973.994a10.035,10.035,0,0,1-2.15,4.368c-.651.734-1.23,1.525-1.826,2.3a.794.794,0,0,1-.692.339q-5.357-.007-10.714,0c-.485,0-.651-.14-.666-.589a5.633,5.633,0,0,0-1.654-3.75c-2.653-2.837-5.282-5.693-7.919-8.543a2.487,2.487,0,0,1,.2-3.556,2.956,2.956,0,0,1,3.879.019c1.183,1.066,2.346,2.151,3.519,3.226.1.088.2.168.3.252ZM140,980c.1.008.174.021.253.021q4.856,0,9.712-.008a.619.619,0,0,0,.412-.208c.621-.758,1.2-1.548,1.835-2.294a8.056,8.056,0,0,0,1.573-3.046,33.6,33.6,0,0,0,1.225-8.577c.066-2.505.018-5.013.018-7.52,0-1.307,0-2.614-.009-3.921a1.5,1.5,0,0,0-.929-1.4,1.655,1.655,0,0,0-1.671.1,1.537,1.537,0,0,0-.749,1.4q0,5.56-.015,11.119a5.238,5.238,0,0,1-.023.545,2.352,2.352,0,0,1-1.885,2.025,3.1,3.1,0,0,1-2.588-.446c-.775,2.232-4.455,2.261-5.267.037a3.371,3.371,0,0,1-3.431.078,1.086,1.086,0,0,1-.835,1.065,1.333,1.333,0,0,1-1.352-.43c-1.143-1.073-2.306-2.128-3.463-3.187a1.874,1.874,0,0,0-2.491-.091,1.546,1.546,0,0,0-.055,2.309q4.028,4.344,8.05,8.693a6.28,6.28,0,0,1,1.527,2.879C139.9,979.423,139.943,979.709,140,980Zm6.188-15.406c0-.8,0-1.6,0-2.407a1.626,1.626,0,0,0-.06-.474c-.223-.706-.831-1.036-1.818-1a1.442,1.442,0,0,0-1.45,1.364q-.017,2.5-.009,5.006a1.484,1.484,0,0,0,1.681,1.417,1.469,1.469,0,0,0,1.658-1.432C146.187,966.242,146.183,965.418,146.183,964.595Zm1.072-.594q0,.353,0,.707c0,.428-.011.857,0,1.285a1.487,1.487,0,0,0,1.64,1.358c.977.006,1.681-.524,1.695-1.334.023-1.328.006-2.656,0-3.985a.976.976,0,0,0-.04-.253,1.492,1.492,0,0,0-1.529-1.068c-1.183-.01-1.772.528-1.773,1.619Q147.254,963.165,147.255,964Zm-8.789,0q0,.466,0,.931c0,.321,0,.642,0,.964a1.68,1.68,0,0,0,3.33-.017c0-1.242,0-2.484,0-3.725a1.444,1.444,0,0,0-1.537-1.445c-1.1-.013-1.78.51-1.795,1.4C138.458,962.741,138.466,963.373,138.465,964Z" transform="translate(-128.221 -951.403)" fill="#323338" stroke="#323338" stroke-linecap="round" stroke-linejoin="round" stroke-width="1"/>
</svg>
