<svg xmlns="http://www.w3.org/2000/svg" width="16" height="16" viewBox="0 0 20 20">
  <path id="md-phone" d="M3,4.762A1.762,1.762,0,0,1,4.762,3H7.65a.881.881,0,0,1,.836.6L9.806,7.561a.881.881,0,0,1-.442,1.066l-1.988.994a9.727,9.727,0,0,0,4.859,4.859l.994-1.988a.881.881,0,0,1,1.067-.442l3.958,1.319a.881.881,0,0,1,.6.836v2.889a1.762,1.762,0,0,1-1.762,1.762h-.881A13.213,13.213,0,0,1,3,5.643Z" transform="translate(-2 -2)" fill="none" stroke="#707070" stroke-linecap="round" stroke-linejoin="round" stroke-width="2"/>
</svg>