<svg xmlns="http://www.w3.org/2000/svg" width="22" height="17" viewBox="0 3 23 17">
  <path id="md-user-group" d="M17.375,20.4H22.5V18.35a3.075,3.075,0,0,0-5.49-1.9m.365,3.954H7.125m10.25,0V18.35a5.111,5.111,0,0,0-.365-1.9M7.125,20.4H2V18.35a3.075,3.075,0,0,1,5.49-1.9M7.125,20.4V18.35a5.111,5.111,0,0,1,.365-1.9m0,0a5.127,5.127,0,0,1,9.52,0M15.325,7.075A3.075,3.075,0,1,1,12.25,4,3.075,3.075,0,0,1,15.325,7.075Zm6.15,3.075a2.05,2.05,0,1,1-2.05-2.05A2.05,2.05,0,0,1,21.475,10.15Zm-14.35,0A2.05,2.05,0,1,1,5.075,8.1,2.05,2.05,0,0,1,7.125,10.15Z" transform="translate(-1.25 -3.25)" fill="none" stroke="#707070" stroke-linecap="round" stroke-linejoin="round" stroke-width="1.5"/>
</svg>