<svg xmlns="http://www.w3.org/2000/svg" width="25" height="19" viewBox="0 0 40 25">
  <path id="md-user-group" d="M24.235,27.718h7.412V24.753A4.447,4.447,0,0,0,23.707,22m.528,5.718H9.412m14.824,0V24.753A7.392,7.392,0,0,0,23.707,22m-14.3,5.718H2V24.753A4.447,4.447,0,0,1,9.94,22m-.528,5.718V24.753A7.391,7.391,0,0,1,9.94,22m0,0a7.415,7.415,0,0,1,13.768,0M21.271,8.447A4.447,4.447,0,1,1,16.824,4,4.447,4.447,0,0,1,21.271,8.447Zm8.894,4.447A2.965,2.965,0,1,1,27.2,9.929,2.965,2.965,0,0,1,30.165,12.894Zm-20.753,0A2.965,2.965,0,1,1,6.447,9.929,2.965,2.965,0,0,1,9.412,12.894Z" transform="translate(-1 -3)" fill="none" stroke="#707070" stroke-linecap="round" stroke-linejoin="round" stroke-width="2"/>
</svg>